<svg height="494.834" viewBox="0 0 1104.598 494.834" width="1104.598" xmlns="http://www.w3.org/2000/svg"><path d="m55.216-76.16h-19.992v76.16h-25.704v-174.93h25.7v72.352h19.996v-72.352h25.7v174.93h-25.7zm37.604 76.16 26.418-174.93h31.416l26.418 174.93h-24.99l-4.76-35.7h-24.752l-4.76 35.7zm43.554-118.048-.714-4.522h-1.428l-.714 4.522-7.378 55.216h17.612zm119.476 58.072v24.038a47.658 47.658 0 0 1 -4.284 19.04 32.746 32.746 0 0 1 -10.234 12.852c-4.76 3.808-11.186 5.95-19.754 5.95s-15.232-2.142-19.992-5.95a32.087 32.087 0 0 1 -10-12.852 47.658 47.658 0 0 1 -4.284-19.04v-103.054a47.435 47.435 0 0 1 4.284-18.8 32.759 32.759 0 0 1 10-13.09c4.76-3.57 11.424-5.95 19.992-5.95s14.994 2.38 19.754 5.95a33.415 33.415 0 0 1 10.234 13.09 47.436 47.436 0 0 1 4.284 18.8v24.038h-24.038v-24.038c0-4.76-1.19-8.092-3.808-10.948-1.19-1.19-3.332-1.9-5.95-1.9-4.522 0-6.664 3.332-7.854 6.426a25.72 25.72 0 0 0 -1.19 6.426v103.05c.238 5 1.666 8.33 4.046 10.948a6.818 6.818 0 0 0 5 1.9c5.474 0 7.616-2.856 8.806-6.426a16.637 16.637 0 0 0 .952-6.426v-24.034zm41.174-114.954v61.166h.952l1.19-2.856 21.42-58.31h24.99l-23.562 57.6 26.656 117.33h-24.99l-17.85-76.16-.714-3.57h-.716l-1.428 3.57-5.95 14.28v61.88h-25.7v-174.93zm91.154 26.418v-26.418h74.256v26.418h-24.276v148.512h-25.7v-148.512zm129.948 72.352h-19.992v76.16h-25.7v-174.93h25.7v72.352h19.992v-72.352h25.7v174.93h-25.7zm44.744-98.77h58.786v26.418h-33.082v45.934h23.8v28.084h-23.8v48.076h33.082v26.418h-58.786z" fill="#fff" transform="translate(-5.08 176.834)"/><path d="m158.828-494.655h70.665l-75.376 494.655h-72.684l-75.376-494.655h70.665l36.342 271.892 2.692 20.863h4.038l2.692-20.863zm103.642 0h72.684v494.655h-72.684zm126.524 0h72.684v494.655h-72.684z" fill="#ed1c24" transform="translate(642.92 494.834)"/><path d="m14.08 0v-258.72h33.44c22.528 0 40.128 4.224 51.744 15.136s17.6 27.808 17.6 53.5c0 12.32-1.056 21.472-4.928 29.92s-9.856 15.488-18.656 23.584c9.5 5.28 16.544 15.136 22.176 31.68q4.224 12.144 4.224 31.68c0 19.36-3.52 36.608-12.32 49.984s-23.936 22.18-46.46 23.236zm38.02-152.064c3.168 0 10.56.352 16.9-3.872s11.264-12.672 11.264-30.624-4.928-26.4-11.264-30.624-13.728-3.872-16.9-3.872zm0 114.4c3.168 0 10.56.7 16.9-3.872s11.256-14.784 11.256-35.904-4.928-31.328-11.264-35.9-13.728-3.872-16.9-3.872zm191.132-221.056v205.568c-.352 10.56-2.464 20.064-6.336 28.16a48.431 48.431 0 0 1 -15.136 19.008c-7.04 5.632-16.544 8.8-29.216 8.8s-22.528-3.168-29.568-8.8a47.456 47.456 0 0 1 -14.784-19.008c-3.872-8.1-5.984-17.6-6.336-28.16v-205.568h38.016v205.568c0 7.392 1.76 12.32 5.28 16.192a10.084 10.084 0 0 0 7.392 2.816c6.688 0 9.856-4.224 11.264-9.5 1.056-2.464 1.408-5.632 1.408-9.5v-205.576zm95.744 258.72-19.712-109.12h-10.208v109.12h-38.016v-258.72h38.016c45.408 0 64.768 25.7 64.768 74.624 0 25.7-6.688 48.928-21.12 58.784l24.288 125.312zm-29.92-144.32c5.28 0 12.32-.7 17.952-5.632s10.208-14.432 10.208-32.736-4.576-28.16-10.208-33.088-12.672-5.28-17.952-5.28zm149.952-21.472v-39.776c0-7.04-1.408-11.968-4.928-16.192a10.958 10.958 0 0 0 -7.744-2.816c-6.688 0-9.856 4.928-11.264 9.5a26.976 26.976 0 0 0 -1.408 9.5v155.592c0 7.392 1.76 12.32 5.28 16.192a10.083 10.083 0 0 0 7.392 2.816c6.688 0 9.856-4.224 11.264-9.5 1.056-2.464 1.408-5.632 1.408-9.5v-46.824h-15.136v-32.032h53.152v128.832h-22.524l-4.58-12.32c-7.04 8.8-17.248 15.136-29.568 15.136s-20.768-3.168-27.1-8.8a46.987 46.987 0 0 1 -13.376-19.008c-3.168-8.1-4.576-17.6-4.224-28.16v-152.416a70.156 70.156 0 0 1 6.336-27.808c3.168-7.04 7.744-14.08 14.784-19.36s16.9-8.8 29.568-8.8 22.176 3.52 29.216 8.8a49.421 49.421 0 0 1 15.136 19.36 70.157 70.157 0 0 1 6.336 27.808v39.776zm133.408 53.152h-29.568v112.64h-38.016v-258.72h38.016v107.008h29.568v-107.008h38.016v258.72h-38.016z" fill="#fff" transform="translate(-14.08 490.834)"/></svg>