<svg height="713.685" viewBox="0 0 657.367 713.685" width="657.367" xmlns="http://www.w3.org/2000/svg"><path d="m229.156-713.685h101.955l-108.752 713.685h-104.868l-108.752-713.685h101.955l52.434 392.285 3.884 30.1h5.826l3.884-30.1zm149.534 0h104.868v713.685h-104.868zm182.548 0h104.868v713.685h-104.868z" fill="#ed1c24" transform="translate(-8.739 713.685)"/><g fill="#fff"><path d="m46.168-63.68h-16.716v63.68h-21.492v-146.265h21.492v60.5h16.716v-60.5h21.492v146.265h-21.492zm31.442 63.68 22.09-146.265h26.268l22.088 146.265h-20.895l-3.98-29.85h-20.7l-3.976 29.85zm36.417-98.7-.6-3.781h-1.194l-.6 3.781-6.163 46.164h14.73zm99.9 48.556v20.1a39.848 39.848 0 0 1 -3.582 15.92 27.38 27.38 0 0 1 -8.557 10.746c-3.98 3.184-9.353 4.975-16.517 4.975s-12.738-1.797-16.718-4.98a26.829 26.829 0 0 1 -8.353-10.746 39.849 39.849 0 0 1 -3.582-15.92v-86.167a39.663 39.663 0 0 1 3.582-15.721 27.391 27.391 0 0 1 8.358-10.945c3.98-2.985 9.552-4.975 16.716-4.975s12.537 1.99 16.517 4.975a27.94 27.94 0 0 1 8.557 10.945 39.662 39.662 0 0 1 3.582 15.721v20.1h-20.1v-20.1c0-3.98-.995-6.766-3.184-9.154a7.088 7.088 0 0 0 -4.975-1.592c-3.781 0-5.572 2.786-6.567 5.373a21.5 21.5 0 0 0 -.995 5.373v86.167c.2 4.179 1.393 6.965 3.383 9.154a5.7 5.7 0 0 0 4.179 1.592c4.577 0 6.368-2.388 7.363-5.373a13.911 13.911 0 0 0 .8-5.373v-20.1zm34.427-96.117v51.143h.8l.995-2.388 17.91-48.755h20.9l-19.7 48.158 22.276 98.103h-20.9l-14.92-63.68-.6-2.985h-.6l-1.194 2.985-4.975 11.94v51.74h-21.486v-146.265zm76.217 22.089v-22.089h62.088v22.089h-20.3v124.172h-21.492v-124.176zm108.654 60.5h-16.718v63.672h-21.492v-146.265h21.492v60.5h16.716v-60.5h21.492v146.265h-21.492zm37.412-82.585h49.153v22.089h-27.663v38.407h19.9v23.482h-19.9v40.2h27.661v22.079h-49.153z" transform="translate(79.3 333.685)"/><path d="m11.8 0v-216.825h28.025c18.88 0 33.63 3.54 43.365 12.685s14.75 23.3 14.75 44.84c0 10.325-.885 17.995-4.13 25.075s-8.26 12.98-15.635 19.765c7.965 4.425 13.865 12.685 18.585 26.55q3.54 10.178 3.54 26.55c0 16.225-2.95 30.68-10.325 41.89s-20.06 18.585-38.94 19.47zm31.86-127.44c2.655 0 8.85.3 14.16-3.245s9.44-10.62 9.44-25.665-4.13-22.125-9.44-25.665-11.5-3.245-14.16-3.245zm0 95.875c2.655 0 8.85.59 14.16-3.245s9.44-12.39 9.44-30.09-4.13-26.255-9.44-30.09-11.5-3.245-14.16-3.245zm160.185-185.26v172.28a59.073 59.073 0 0 1 -5.31 23.6 40.589 40.589 0 0 1 -12.685 15.93c-5.9 4.715-13.865 7.375-24.485 7.375s-18.88-2.66-24.78-7.375a39.772 39.772 0 0 1 -12.39-15.93 59.072 59.072 0 0 1 -5.31-23.6v-172.28h31.86v172.28c0 6.195 1.475 10.325 4.425 13.57a8.451 8.451 0 0 0 6.195 2.36c5.605 0 8.26-3.54 9.44-7.965a20.622 20.622 0 0 0 1.18-7.965v-172.28zm80.24 216.825-16.52-91.45h-8.555v91.45h-31.86v-216.825h31.86c38.055 0 54.28 21.535 54.28 62.54 0 21.535-5.605 41.005-17.7 49.265l20.355 105.02zm-25.075-120.95c4.425 0 10.325-.59 15.045-4.72s8.555-12.1 8.555-27.435-3.835-23.6-8.555-27.73-10.62-4.425-15.045-4.425zm125.67-17.995v-33.335c0-5.9-1.18-10.03-4.13-13.57a9.183 9.183 0 0 0 -6.49-2.36c-5.6 0-8.26 4.13-9.44 7.965a22.608 22.608 0 0 0 -1.18 7.965v130.39c0 6.2 1.475 10.325 4.425 13.57a8.451 8.451 0 0 0 6.2 2.36c5.605 0 8.26-3.54 9.44-7.965a20.622 20.622 0 0 0 1.18-7.965v-39.235h-12.69v-26.845h44.545v107.97h-18.88l-3.835-10.325c-5.9 7.375-14.455 12.685-24.78 12.685s-17.405-2.66-22.715-7.375a39.378 39.378 0 0 1 -11.21-15.93c-2.655-6.785-3.835-14.75-3.54-23.6v-127.735a58.8 58.8 0 0 1 5.31-23.3 40.6 40.6 0 0 1 12.39-16.225c5.9-4.425 14.16-7.375 24.78-7.375s18.585 2.95 24.485 7.375a41.418 41.418 0 0 1 12.685 16.225 58.8 58.8 0 0 1 5.31 23.3v33.335zm111.805 44.545h-24.78v94.4h-31.86v-216.825h31.86v89.68h24.78v-89.68h31.86v216.825h-31.86z" transform="translate(73.46 578.685)"/></g></svg>