<svg id="Layer_1" data-name="Layer 1" xmlns="http://www.w3.org/2000/svg" xmlns:xlink="http://www.w3.org/1999/xlink" viewBox="0 0 558 135"><defs><linearGradient id="New_Gradient_Swatch_4" x1="88.57" y1="29.64" x2="88.57" y2="54.92" gradientUnits="userSpaceOnUse"><stop offset="0" stop-color="#fff" stop-opacity="0"/><stop offset="1" stop-color="#007cc3"/></linearGradient><linearGradient id="New_Gradient_Swatch_3" x1="591.33" y1="-24.25" x2="591.33" y2="-8.77" gradientTransform="translate(673.21 63.48) rotate(180)" gradientUnits="userSpaceOnUse"><stop offset="0" stop-color="#fff" stop-opacity="0"/><stop offset="1" stop-color="#62bb46"/></linearGradient></defs><title>CW-logo-CMYK</title><rect x="-14" y="-32.69" width="604" height="208.63" style="fill:none"/><path d="M148.4,55h-24a29.29,29.29,0,0,1-1.45,8.77A39.31,39.31,0,0,1,118.65,73a49.1,49.1,0,0,1-7,8.65A56.5,56.5,0,0,1,102.45,89a60,60,0,0,1-10.71,5.47,57.41,57.41,0,0,1-11.3,3.13,49.56,49.56,0,0,1-11,.64,40.89,40.89,0,0,1-9.94-1.75,29.94,29.94,0,0,1-13.75-8.52A24.74,24.74,0,0,1,40,76.55c-.16-.74-.28-1.5-.37-2.25a29,29,0,0,1,.46-9.53,37.67,37.67,0,0,1,4.46-11.21A46.3,46.3,0,0,1,48,48.47,48.71,48.71,0,0,1,52,44a56.13,56.13,0,0,1,4.45-4q2.32-1.86,4.85-3.49a58.53,58.53,0,0,1,5.23-3A58.52,58.52,0,0,1,78.18,29c1.2-.32,2.43-.6,3.67-.84l2.92-6.68c-2,.42-3.93.91-5.82,1.46-2.56.75-5,1.62-7.44,2.59s-4.67,2-6.9,3.18-4.35,2.39-6.42,3.73-4.07,2.76-6,4.27a73.83,73.83,0,0,0-5.58,4.86,70.8,70.8,0,0,0-5.14,5.52,65.6,65.6,0,0,0-4.66,6.32A56,56,0,0,0,30.1,67.86a46.94,46.94,0,0,0-1.42,6.44,42.85,42.85,0,0,0-.37,9.79A38.55,38.55,0,0,0,34,101.55a42.15,42.15,0,0,0,17.91,15.59,55.41,55.41,0,0,0,14.55,4.56,66,66,0,0,0,17,.63,76.28,76.28,0,0,0,18.13-3.92,79.66,79.66,0,0,0,17.29-8.4,74.86,74.86,0,0,0,14.44-12,63.64,63.64,0,0,0,10-14.25,51,51,0,0,0,5-14.81A42.7,42.7,0,0,0,148.4,55Z" style="fill:url(#New_Gradient_Swatch_4)"/><path d="M45.26,72.23H60a17.77,17.77,0,0,1,.89-5.37,23.53,23.53,0,0,1,2.62-5.64,29.87,29.87,0,0,1,4.28-5.3,34.77,34.77,0,0,1,5.64-4.51,37.1,37.1,0,0,1,6.55-3.35,35.08,35.08,0,0,1,6.92-1.91,30.22,30.22,0,0,1,6.74-.4,25.13,25.13,0,0,1,6.08,1.08A18.41,18.41,0,0,1,108.1,52a15.21,15.21,0,0,1,3.52,7c.09.46.16.92.22,1.38a17.69,17.69,0,0,1-.28,5.83,22.82,22.82,0,0,1-2.73,6.87,26.77,26.77,0,0,1-2.14,3.11A30.57,30.57,0,0,1,104.24,79a34.92,34.92,0,0,1-2.72,2.43c-1,.76-1.94,1.47-3,2.14s-2.1,1.28-3.2,1.84-2.26,1.08-3.43,1.53a36.8,36.8,0,0,1-3.68,1.2c-.74.19-1.49.36-2.24.51L84.21,92.7c1.21-.26,2.4-.56,3.56-.9a48,48,0,0,0,4.56-1.58c1.44-.59,2.85-1.24,4.21-2s2.67-1.46,3.94-2.28,2.49-1.69,3.67-2.62,2.32-1.92,3.41-3A42.11,42.11,0,0,0,110.71,77a41.06,41.06,0,0,0,2.85-3.87,34.1,34.1,0,0,0,4.11-8.82,29.81,29.81,0,0,0,.87-3.94,26.72,26.72,0,0,0,.23-6,23.7,23.7,0,0,0-3.49-10.69,25.83,25.83,0,0,0-11-9.54,33.63,33.63,0,0,0-8.9-2.79A40.58,40.58,0,0,0,85,31a47.2,47.2,0,0,0-11.1,2.4A48.82,48.82,0,0,0,63.3,38.53a45.66,45.66,0,0,0-8.84,7.38,38.48,38.48,0,0,0-6.14,8.72,31.24,31.24,0,0,0-3,9.06A26.32,26.32,0,0,0,45.26,72.23Z" style="fill:url(#New_Gradient_Swatch_3)"/><path d="M205.67,102.49c-3.19,1.51-8.59,2.75-15.59,2.75-15.52,0-25.44-9.57-25.44-25.08,0-12.5,5.32-23,14-29.43a35.88,35.88,0,0,1,22.25-7.09c6.56,0,11.34,1.6,13,2.66l-3,8.33c-2-1.06-6-2.13-11.25-2.13a22.67,22.67,0,0,0-15.16,5.59c-5.32,4.61-8.68,12.14-8.68,20.74,0,10.1,5.14,17.55,16.92,17.55a30.62,30.62,0,0,0,12-2.22Z" style="fill:#007cc3"/><path d="M209.28,104.27l5.05-26.59c1.16-6.12,1.78-12.77,2.22-16.58h8.95c-.26,2.93-.53,5.94-1,9h.26c2.93-5.76,7.63-10,13.48-10,.79,0,1.59.09,2.3.09l-2,10.1a12.89,12.89,0,0,0-1.95-.09c-7.36,0-12.05,7.45-13.74,16.66l-3.28,17.38Z" style="fill:#007cc3"/><path d="M263.18,104.27c0-2.57.36-6,.71-9.66h-.18c-4.25,7.88-10,10.63-15.51,10.63-7.71,0-12.76-6-12.76-14.71,0-14.71,10.28-30.4,30.4-30.4A46.81,46.81,0,0,1,279,62.08l-4.52,22.51a99.84,99.84,0,0,0-1.77,19.68Zm4.17-35.72a17.16,17.16,0,0,0-4.26-.45c-9.48,0-16.93,10.73-16.93,20.57,0,4.52,1.69,8.24,6.21,8.24,4.87,0,10.72-6,12.76-17Z" style="fill:#007cc3"/><path d="M278.61,104.27l5.59-29.78c1.06-5.14,1.68-9.67,2.21-13.39h9.22l-1,7.71h.17c4-5.76,9.49-8.68,15.51-8.68,6.21,0,11,3.72,11,11.87a40.81,40.81,0,0,1-.79,7.1l-4.7,25.17H305.47l4.61-24.38a33.15,33.15,0,0,0,.53-5.14c0-3.63-1.33-6.2-5.41-6.2-4.7,0-10.72,5.67-12.58,15.77l-3.73,20Z" style="fill:#007cc3"/><path d="M356.13,101.79a34.82,34.82,0,0,1-15.25,3.45c-12,0-17.72-7.35-17.72-17.9,0-13,9.57-27.21,24.46-27.21,8.51,0,13.91,4.87,13.91,12.14,0,11.08-11.61,14.62-28.27,14.27a12,12,0,0,0,1.15,6.12c1.69,2.92,4.79,4.43,8.86,4.43a25.44,25.44,0,0,0,11.88-2.84Zm-9.84-33.95c-6.47,0-10.73,5.76-12,11,10.64.09,17.46-1.33,17.46-6.56C351.78,69.52,349.57,67.84,346.29,67.84Z" style="fill:#007cc3"/><path d="M374.8,61.1l.8,21a117.52,117.52,0,0,1-.18,12.76h.18c1.33-3.81,3.1-7.8,5-12.14L391.11,61.1h8.6l1.77,21c.35,5,.53,9,.44,12.76h.18c1.33-4.16,2.66-8.06,4.43-12.67l9.31-21.1H426.3l-21.19,43.17h-9.66L393.5,85.48a121.35,121.35,0,0,1-.44-12.77h-.18c-2.13,5.23-3.28,8.42-5.05,12.32l-9.66,19.24h-9.66l-4-43.17Z" style="fill:#007cc3"/><path d="M448.61,104.27c0-2.57.35-6,.7-9.66h-.17c-4.26,7.88-10,10.63-15.51,10.63-7.71,0-12.77-6-12.77-14.71,0-14.71,10.28-30.4,30.4-30.4a46.81,46.81,0,0,1,13.12,1.95l-4.52,22.51a99.84,99.84,0,0,0-1.77,19.68Zm4.16-35.72a17,17,0,0,0-4.25-.45c-9.49,0-16.93,10.73-16.93,20.57,0,4.52,1.68,8.24,6.2,8.24,4.88,0,10.73-6,12.77-17Z" style="fill:#007cc3"/><path d="M464,104.27l5-26.59c1.15-6.12,1.77-12.77,2.22-16.58h8.95c-.27,2.93-.53,5.94-1,9h.27c2.92-5.76,7.62-10,13.47-10,.8,0,1.6.09,2.31.09l-2,10.1a13,13,0,0,0-2-.09c-7.36,0-12.06,7.45-13.74,16.66l-3.28,17.38Z" style="fill:#007cc3"/><path d="M524.9,101.79a34.77,34.77,0,0,1-15.24,3.45c-12,0-17.73-7.35-17.73-17.9,0-13,9.57-27.21,24.46-27.21,8.51,0,13.92,4.87,13.92,12.14,0,11.08-11.61,14.62-28.28,14.27a12,12,0,0,0,1.16,6.12c1.68,2.92,4.78,4.43,8.86,4.43a25.51,25.51,0,0,0,11.88-2.84Zm-9.84-33.95c-6.47,0-10.72,5.76-12,11,10.63.09,17.46-1.33,17.46-6.56C520.56,69.52,518.34,67.84,515.06,67.84Z" style="fill:#007cc3"/><path d="M546.28,52.31a8,8,0,1,1-7.92-7.77A7.83,7.83,0,0,1,546.28,52.31Zm-14,0a6,6,0,0,0,6.06,6.21,6,6,0,0,0,5.93-6.16,6,6,0,1,0-12,0Zm4.78,4h-1.8V48.57a20.27,20.27,0,0,1,3-.24,4.18,4.18,0,0,1,2.65.61,2,2,0,0,1-.81,3.51v.1c.76.23,1.14.85,1.38,1.89a7.18,7.18,0,0,0,.57,1.9h-1.9a6.25,6.25,0,0,1-.61-1.9c-.14-.8-.62-1.18-1.61-1.18h-.86Zm0-4.36H538c1,0,1.8-.33,1.8-1.14s-.52-1.19-1.66-1.19a4.07,4.07,0,0,0-1,.1Z" style="fill:#007cc3"/></svg>